# xmcd
#
# Track frame offsets: 
#        150
#        14550
#        31987
#        50732
#        62150
#        99080
#        115915
#        127185
#        154060
#        171105
#        197650
#
# Disc length: 2682 seconds
#
# Revision: 0
# Processed by: cddbd v1.5.2PL0 Copyright (c) Steve Scherf et al.
# Submitted via: ExactAudioCopy v0.95b3
#
DISCID=940a780b
DTITLE=John Lennon  - Studio Tracks  Vol. 2(1990)[FLAC]
DYEAR=1900
DGENRE=
TTITLE0=Imagine
TTITLE1=Crippled Inside
TTITLE2=Jealous Guy
TTITLE3=It's So Hard
TTITLE4=How Do You Sleep
TTITLE5=Give Me Some Truth
TTITLE6=Oh My Love
TTITLE7=How Do You Sleep 2
TTITLE8=How
TTITLE9=Oh Yoko
TTITLE10=San Francisco Bay Blues
EXTD=
EXTT0=
EXTT1=
EXTT2=
EXTT3=
EXTT4=
EXTT5=
EXTT6=
EXTT7=
EXTT8=
EXTT9=
EXTT10=
PLAYORDER=
